# xmcd CD database file
#
# Track frame offsets:
#	183
#	51355
#	74598
#	94828
#	124350
#	137783
#	152438
#	174655
#	194680
#	220170
#	250970
#	273420
#	299438
#	299738
#	300038
#	300338
#	300638
#	300938
#	301238
#	301538
#	301838
#	302138
#	302438
#	302738
#	303038
#	303338
#	303638
#	303938
#	304238
#	304538
#	304838
#	305138
#	305438
#	305738
#	306038
#	306338
#	306638
#	306938
#	307238
#	307538
#	307838
#	308138
#	308438
#	308738
#	309038
#	309338
#	309638
#	309938
#	310238
#	310538
#	310838
#	311138
#	311438
#	311738
#	312038
#	312338
#	312638
#	312938
#	313238
#	313538
#	313838
#	314138
#	314438
#	314738
#	315038
#	315338
#	315638
#	315938
#	316238
#	316538
#	316838
#	317138
#	317463
#	317763
#	318063
#	318363
#	318663
#	318963
#	319263
#	319563
#	319863
#	320163
#	320463
#	320763
#	321063
#	321363
#	321663
#	321963
#	322263
#	322573
#	351513
#	351825
#	352125
#	352425
#	352725
#	353025
#	353325
#	353625
#	353925
#
# Disc length: 4723 seconds
#
# Revision: 8
# Processed by: cddbd v1.5.2PL0 Copyright (c) Steve Scherf et al.
# Submitted via: CDex 1.51
#
DISCID=9c127163
DTITLE=The Stone Roses - Second Coming
DYEAR=1994
DGENRE=Psychedelic Rock
TTITLE0=Breaking Into Heaven
TTITLE1=Driving South
TTITLE2=Ten Storey Love Song
TTITLE3=Daybreak
TTITLE4=Your Star Will Shine
TTITLE5=Straight To The Man
TTITLE6=Begging You
TTITLE7=Tightrope
TTITLE8=Good Times
TTITLE9=Tears
TTITLE10=How Do You Sleep
TTITLE11=Love Spreads
TTITLE12=
TTITLE13=
TTITLE14=
TTITLE15=
TTITLE16=
TTITLE17=
TTITLE18=
TTITLE19=
TTITLE20=
TTITLE21=
TTITLE22=
TTITLE23=
TTITLE24=
TTITLE25=
TTITLE26=
TTITLE27=
TTITLE28=
TTITLE29=
TTITLE30=
TTITLE31=
TTITLE32=
TTITLE33=
TTITLE34=
TTITLE35=
TTITLE36=
TTITLE37=
TTITLE38=
TTITLE39=
TTITLE40=
TTITLE41=
TTITLE42=
TTITLE43=
TTITLE44=
TTITLE45=
TTITLE46=
TTITLE47=
TTITLE48=
TTITLE49=
TTITLE50=
TTITLE51=
TTITLE52=
TTITLE53=
TTITLE54=
TTITLE55=
TTITLE56=
TTITLE57=
TTITLE58=
TTITLE59=
TTITLE60=
TTITLE61=
TTITLE62=
TTITLE63=
TTITLE64=
TTITLE65=
TTITLE66=
TTITLE67=
TTITLE68=
TTITLE69=
TTITLE70=
TTITLE71=
TTITLE72=
TTITLE73=
TTITLE74=
TTITLE75=
TTITLE76=
TTITLE77=
TTITLE78=
TTITLE79=
TTITLE80=
TTITLE81=
TTITLE82=
TTITLE83=
TTITLE84=
TTITLE85=
TTITLE86=
TTITLE87=
TTITLE88=
TTITLE89=The Foz
TTITLE90=
TTITLE91=
TTITLE92=
TTITLE93=
TTITLE94=
TTITLE95=
TTITLE96=
TTITLE97=
TTITLE98=
EXTD=YEAR: 1994
EXTT0=
EXTT1=
EXTT2=
EXTT3=
EXTT4=
EXTT5=
EXTT6=
EXTT7=
EXTT8=
EXTT9=
EXTT10=
EXTT11=
EXTT12=
EXTT13=
EXTT14=
EXTT15=
EXTT16=
EXTT17=
EXTT18=
EXTT19=
EXTT20=
EXTT21=
EXTT22=
EXTT23=
EXTT24=
EXTT25=
EXTT26=
EXTT27=
EXTT28=
EXTT29=
EXTT30=
EXTT31=
EXTT32=
EXTT33=
EXTT34=
EXTT35=
EXTT36=
EXTT37=
EXTT38=
EXTT39=
EXTT40=
EXTT41=
EXTT42=
EXTT43=
EXTT44=
EXTT45=
EXTT46=
EXTT47=
EXTT48=
EXTT49=
EXTT50=
EXTT51=
EXTT52=
EXTT53=
EXTT54=
EXTT55=
EXTT56=
EXTT57=
EXTT58=
EXTT59=
EXTT60=
EXTT61=
EXTT62=
EXTT63=
EXTT64=
EXTT65=
EXTT66=
EXTT67=
EXTT68=
EXTT69=
EXTT70=
EXTT71=
EXTT72=
EXTT73=
EXTT74=
EXTT75=
EXTT76=
EXTT77=
EXTT78=
EXTT79=
EXTT80=
EXTT81=
EXTT82=
EXTT83=
EXTT84=
EXTT85=
EXTT86=
EXTT87=
EXTT88=
EXTT89=
EXTT90=
EXTT91=
EXTT92=
EXTT93=
EXTT94=
EXTT95=
EXTT96=
EXTT97=
EXTT98=
PLAYORDER=
